<svg width="24" height="25" viewBox="0 0 24 25" fill="none" xmlns="http://www.w3.org/2000/svg">
<path fill-rule="evenodd" clip-rule="evenodd" d="M3.18579 9.65768C3.06333 9.92159 2.99993 10.209 3 10.5V19.5C3 20.0304 3.21071 20.5391 3.58579 20.9142C3.96086 21.2893 4.46957 21.5 5 21.5H8V21.5H10V21.5H14V21.5H16V21.5H19C19.5304 21.5 20.0391 21.2893 20.4142 20.9142C20.7893 20.5391 21 20.0304 21 19.5V10.5C21.0001 10.209 20.9367 9.92159 20.8142 9.65768C20.6918 9.39378 20.5132 9.15976 20.291 8.97197L13.291 2.97297C12.93 2.66788 12.4726 2.50049 12 2.50049C11.5274 2.50049 11.07 2.66788 10.709 2.97297L3.709 8.97197C3.4868 9.15976 3.30824 9.39378 3.18579 9.65768ZM16 21.5V20.5V13.3889C16 12.8474 15.757 12.3556 15.3715 12.0129C14.9898 11.6737 14.4949 11.5 14 11.5H10C9.5051 11.5 9.01019 11.6737 8.62853 12.0129C8.24303 12.3556 8 12.8474 8 13.3889V20.5V21.5H10V20.5V13.5H14V20.5V21.5H16Z" fill="#2154C5"/>
</svg>
