<svg width="25" height="25" viewBox="0 0 25 25" fill="none" xmlns="http://www.w3.org/2000/svg">
<path fill-rule="evenodd" clip-rule="evenodd" d="M21.5455 17.1018C22.5988 15.0714 22.9243 12.7413 22.4676 10.5L20.6308 7.95004L23.3737 5.20711C23.7643 4.81658 23.7643 4.18342 23.3737 3.79289C22.9832 3.40237 22.35 3.40237 21.9595 3.79289L19.4465 6.30592L17.6666 3.83499C15.6854 2.69185 13.3722 2.26247 11.1127 2.61844C8.85318 2.97442 6.78403 4.09424 5.25025 5.79116C3.71648 7.48808 2.81081 9.65952 2.68427 11.9434C2.55773 14.2272 3.21796 16.4854 4.55488 18.3414C5.8918 20.1974 7.82458 21.5389 10.0309 22.1424C12.2372 22.7458 14.5837 22.5746 16.6791 21.6573C18.7745 20.74 20.4921 19.1322 21.5455 17.1018ZM19.4465 6.30592L12.6666 13.0858L10.3737 10.7929C9.98321 10.4024 9.35004 10.4024 8.95952 10.7929C8.56899 11.1834 8.56899 11.8166 8.95952 12.2071L11.9595 15.2071C12.35 15.5976 12.9832 15.5976 13.3737 15.2071L20.6308 7.95004L19.4465 6.30592Z" fill="#2154C5"/>
</svg>
