<svg width="1024" height="1024" viewBox="0 0 1024 1024" fill="none" xmlns="http://www.w3.org/2000/svg">
<path d="M210.411 936C210.411 936 201.154 613.928 201.154 372.767C201.154 131.606 545.838 131.606 545.838 131.606C606.062 131.606 656.468 140.116 697.054 157.136C737.902 174.156 768.538 197.984 788.963 228.62C809.648 259.256 819.991 294.737 819.991 335.061C819.991 365.697 813.576 393.06 800.746 417.15C787.915 440.978 770.24 460.748 747.722 476.458C725.203 492.169 699.149 503.167 669.56 509.451V517.307C702.029 518.878 732.011 527.65 759.505 543.622C787.261 559.595 809.518 581.852 826.276 610.393C843.034 638.673 851.413 672.189 851.413 710.942C851.413 754.147 840.415 792.77 818.42 826.81C796.425 860.588 764.611 887.296 722.977 906.935C681.343 926.312 630.807 936 571.368 936H210.411ZM404.833 779.285H525.021C567.178 779.285 598.207 771.298 618.107 755.326C638.27 739.353 648.351 717.096 648.351 688.555C648.351 667.869 643.507 650.063 633.818 635.138C624.13 619.951 610.383 608.298 592.577 600.181C574.772 591.802 553.431 587.613 528.556 587.613H404.833V779.285ZM404.833 462.319H512.452C533.662 462.319 552.515 458.784 569.011 451.714C585.507 444.644 598.338 434.432 607.503 421.078C616.929 407.724 621.642 391.62 621.642 372.767C621.642 345.797 612.085 324.587 592.97 309.138C573.855 293.689 548.063 285.965 515.594 285.965H404.833V462.319Z" fill="#2154C5"/>
<path d="M539.733 789.701C542.616 789.701 546.34 792.344 550.905 797.63C555.471 802.916 557.753 807.961 557.753 812.767C557.753 817.572 557.032 826.162 555.591 838.536C554.149 850.79 552.647 860.581 551.086 867.91C541.114 911.399 534.146 933.144 530.182 933.144C527.539 933.144 524.235 931.041 520.27 926.837C516.426 922.512 514.504 918.968 514.504 916.205C514.504 915.964 516.126 909.717 519.369 897.463C522.613 885.209 525.857 869.471 529.101 850.25C532.464 830.908 534.146 812.467 534.146 794.927C534.146 791.443 536.008 789.701 539.733 789.701Z" fill="white"/>
<path d="M625.443 844.663C626.404 841.66 628.326 840.158 631.209 840.158C634.093 840.158 637.396 842.621 641.121 847.546C644.965 852.472 646.887 856.737 646.887 860.341C646.887 861.663 644.124 870.493 638.598 886.831C633.071 903.17 628.806 916.084 625.803 925.575C624.121 930.621 621.298 933.144 617.333 933.144C614.931 933.144 612.888 932.303 611.206 930.621C609.645 928.819 608.864 926.056 608.864 922.332C608.864 918.607 609.585 913.321 611.026 906.474C598.652 924.254 588.801 933.144 581.473 933.144C577.628 933.144 573.003 930.681 567.597 925.755C562.191 920.71 559.488 915.844 559.488 911.159C559.488 899.626 562.731 884.909 569.219 867.009C575.826 849.108 582.013 840.158 587.78 840.158C591.264 840.158 594.327 841.72 596.97 844.843C599.733 847.967 601.115 851.391 601.115 855.115C601.115 856.557 599.613 860.581 596.61 867.189C587.479 887.011 582.914 901.007 582.914 909.177C582.914 909.897 583.215 910.258 583.815 910.258C585.617 910.258 588.981 907.435 593.907 901.788C598.953 896.022 604.539 887.852 610.666 877.28C616.913 866.588 621.839 855.716 625.443 844.663Z" fill="white"/>
<path d="M707.315 840.338C711.88 840.338 716.385 843.041 720.83 848.447C725.275 853.854 727.498 858.719 727.498 863.044C727.498 865.927 726.236 867.369 723.714 867.369C722.272 867.369 720.17 866.828 717.406 865.747C714.643 864.546 711.82 863.945 708.937 863.945C706.174 863.945 702.029 864.906 696.503 866.828C691.096 868.751 688.393 871.273 688.393 874.397C688.393 875.598 690.015 877.34 693.259 879.623C696.503 881.906 700.047 884.248 703.891 886.651C707.735 889.054 711.279 892.418 714.523 896.742C717.767 900.947 719.389 905.573 719.389 910.618C719.389 915.544 715.724 920.53 708.396 925.575C701.188 930.621 692.658 933.144 682.807 933.144C673.076 933.144 664.726 930.921 657.759 926.476C650.791 922.031 647.307 917.466 647.307 912.781C647.307 908.095 649.229 905.753 653.073 905.753C654.635 905.753 656.497 906.353 658.66 907.555C664.666 911.039 672.115 912.781 681.005 912.781C690.015 912.781 694.52 911.579 694.52 909.177C694.52 906.774 692.778 904.131 689.294 901.248C685.931 898.244 682.206 895.481 678.122 892.958C674.157 890.435 670.433 887.372 666.949 883.768C663.585 880.043 661.903 876.439 661.903 872.955C661.903 866.468 667.79 859.44 679.563 851.871C691.337 844.183 700.587 840.338 707.315 840.338Z" fill="white"/>
<path d="M498.168 239.331C477.061 248.673 457.681 263.857 453.223 286.956C443.18 338.984 558.756 402.389 611.098 408.71C663.439 415.031 695.611 402.302 718.858 386.54C742.105 370.778 787.435 321.593 790.904 307.56C794.759 291.968 750.472 281.02 724.42 274.58L724.179 274.522C684.188 264.911 628.592 251.551 595.467 242.702C553.978 231.618 524.551 227.653 498.168 239.331Z" fill="white"/>
<path d="M215.721 315.203C226.819 305.493 261.916 278.58 313.522 248.615C378.029 211.159 459.877 211.853 479.993 181.333C500.108 150.814 573.632 96.0172 650.625 87C652.012 89.0809 651.735 97.127 639.527 112.664C624.267 132.086 604.152 125.15 581.956 181.333C559.76 237.517 660.56 225.359 749.814 264.569C822.5 296.5 911.429 368.613 902.412 513.581C893.395 658.549 744.958 709.184 654.787 719.588C564.615 729.993 486.235 759.125 471.669 840.973C460.016 906.452 480.686 928.833 492.478 931.838C491.322 933.688 473.056 943.63 444.618 914.498C416.179 885.365 407.855 795.887 431.439 744.559C455.022 693.23 507.738 645.37 596.522 631.498C685.306 617.625 765.767 582.944 779.64 506.645C790.738 445.605 740.565 403.294 713.745 388.728C717.213 380.404 724.982 367.087 728.311 330.463C732.473 284.684 696.404 286.765 687.387 286.071C680.174 285.516 612.938 285.84 579.875 286.071C566.927 286.302 536.038 292.036 516.061 313.123C491.091 339.48 519.529 347.804 480.686 396.358C441.843 444.912 313.522 467.108 215.721 315.203Z" fill="white"/>
<circle cx="364.157" cy="306.88" r="27.7451" fill="#2154C5"/>
<path d="M196.993 256.939C189.779 182.027 239.766 119.832 265.662 98.098C265.662 109.89 265.662 105.728 252.483 125.15C239.304 144.571 190.056 219.483 222.657 286.765C255.257 354.047 344.042 399.826 387.047 430.346C430.051 460.865 512.593 476.819 525.078 481.674C537.564 486.529 552.13 490.691 525.078 489.304C498.027 487.917 450.167 485.142 374.561 450.461C298.956 415.779 206.01 350.578 196.993 256.939Z" fill="white"/>
<path d="M155.375 174.397C163.144 148.872 174.334 131.392 178.958 125.843C180.346 126.306 182.704 129.173 181.039 136.941C178.958 146.652 171.328 157.75 167.167 171.623C164.493 180.536 155.375 202.142 164.392 249.309C173.409 296.475 192.137 304.799 193.525 308.961C194.912 313.123 196.299 322.833 192.137 323.527C187.976 324.221 184.507 326.995 172.716 310.348C160.924 293.701 150.52 263.875 148.439 245.841C146.358 227.806 145.664 206.304 155.375 174.397Z" fill="white"/>
<path d="M135.071 577.939C145.078 616.247 160.635 642.827 167.163 651.328C169.247 650.725 172.914 646.613 170.906 634.996C168.395 620.474 157.74 603.567 152.39 582.751C148.953 569.376 136.714 536.8 152.877 467.399C169.041 397.997 197.302 386.764 199.605 380.676C201.909 374.587 204.541 360.271 198.411 358.996C192.281 357.721 187.303 353.402 168.834 377.387C150.364 401.371 133.17 444.979 129.017 471.596C124.864 498.213 122.562 530.054 135.071 577.939Z" fill="white"/>
<path d="M232.744 607.401C253.454 641.147 276.065 662.057 284.782 668.295C286.601 667.111 288.914 662.112 283.616 651.58C276.993 638.414 261.883 625.334 250.715 606.972C243.539 595.174 222.359 567.561 217.653 496.458C212.947 425.354 236.723 406.392 237.158 399.897C237.592 393.402 235.949 378.939 229.714 379.5C223.478 380.062 217.459 377.376 206.758 405.694C196.057 434.012 192.281 480.734 196.043 507.409C199.805 534.084 206.858 565.22 232.744 607.401Z" fill="white"/>
<path d="M363.246 610.428C396.667 631.657 426.163 640.52 436.733 642.297C437.848 640.436 437.732 634.928 428.348 627.791C416.618 618.869 397.3 613.749 379.204 602.154C367.578 594.703 336.427 579.19 300.986 517.37C265.545 455.549 278.584 428.075 276.123 422.048C273.662 416.022 265.837 403.747 260.481 406.989C255.125 410.231 248.538 410.46 251.354 440.601C254.17 470.742 271.286 514.38 286.376 536.696C301.466 559.012 321.471 583.892 363.246 610.428Z" fill="white"/>
</svg>
